<svg width="20" height="18" viewBox="0 0 20 18" fill="none" xmlns="http://www.w3.org/2000/svg">
<g id="Group">
<path id="Fill 1" opacity="0.4" d="M20 12.941C20 15.731 17.76 17.991 14.97 18.001H14.96H5.05C2.27 18.001 0 15.751 0 12.961V12.951C0 12.951 0.006 8.52498 0.014 6.29898C0.015 5.88098 0.495 5.64698 0.822 5.90698C3.198 7.79198 7.447 11.229 7.5 11.274C8.21 11.843 9.11 12.164 10.03 12.164C10.95 12.164 11.85 11.843 12.56 11.263C12.613 11.228 16.767 7.89398 19.179 5.97798C19.507 5.71698 19.989 5.95098 19.99 6.36798C20 8.57698 20 12.941 20 12.941Z" fill="#1A1B22"/>
<path id="Fill 4" d="M19.4761 2.674C18.6101 1.042 16.9061 0 15.0301 0H5.05013C3.17413 0 1.47013 1.042 0.604128 2.674C0.410128 3.039 0.502128 3.494 0.825128 3.752L8.25013 9.691C8.77013 10.111 9.40013 10.32 10.0301 10.32C10.0341 10.32 10.0371 10.32 10.0401 10.32C10.0431 10.32 10.0471 10.32 10.0501 10.32C10.6801 10.32 11.3101 10.111 11.8301 9.691L19.2551 3.752C19.5781 3.494 19.6701 3.039 19.4761 2.674Z" fill="#1A1B22"/>
</g>
</svg>
