<svg width="172" height="57" viewBox="0 0 172 57" fill="none" xmlns="http://www.w3.org/2000/svg">
<g opacity="0.7">
<g clip-path="url(#clip0_18_834)">
<path d="M4.41936 30.3237V27.3602C3.94312 26.9939 3.63087 26.3865 3.63087 25.6983L3.6267 20.3045L10.5285 24.8611C10.5285 24.8611 11.1613 25.333 11.8715 25.2859C12.6637 25.2338 13.0505 24.6508 13.0793 24.6074L19.799 13.2917C19.8138 13.2672 20.6232 12.0527 20.5963 10.4375C20.5963 7.38216 18.109 4.90572 15.0403 4.90572C13.9229 4.90572 12.8833 5.23459 12.0124 5.79962C12.0124 5.79639 12.036 4.96338 11.2438 4.42188C10.2705 6.09436 9.35457 8.11093 8.60269 10.3392C8.04676 11.9859 7.63214 13.5938 7.35695 15.0956H8.88806C9.20401 15.0878 9.47966 14.9189 9.63578 14.6689L10.0898 13.633C10.4085 12.9001 10.9705 12.3475 11.5857 12.1939C11.8451 12.1293 12.0962 12.0837 12.3065 12.0191C13.6102 11.5325 13.7385 10.3388 13.7487 9.98405C14.0433 10.1335 14.2453 10.437 14.2453 10.7885C14.2453 10.9601 14.1272 11.2557 14.1272 11.2557C13.8372 12.0025 13.1395 12.9213 12.9834 13.0859C12.3431 13.8 11.2392 14.7986 11.2392 14.7986L11.2401 14.799C10.5535 15.4318 10.0796 16.3359 10.0087 17.2326C9.95451 17.9221 10.1213 19.239 10.1421 19.3405L10.1727 19.5176C10.1727 19.6629 10.0546 19.7805 9.90864 19.7805C9.85583 19.7805 9.80673 19.7653 9.76549 19.7385C9.69276 19.6915 8.14729 18.9322 7.23604 18.536V18.5365C5.61367 17.8469 4.04782 17.4244 2.7312 17.4429C2.06317 17.4521 1.4359 17.8718 1.34927 18.6583C1.18944 20.113 1.31777 25.3726 2.10162 27.5262C2.38329 28.2993 3.16204 30.2263 4.41936 30.3237Z" fill="#1A1B22"/>
<path d="M22.2685 55.37C22.1184 55.5323 22.0257 55.7486 22.0257 55.9866C22.0257 56.2583 22.1452 56.5019 22.3342 56.6693C22.3866 56.3077 22.6497 56.0148 22.9958 55.9188C22.9958 55.9188 24.1554 55.6089 24.6089 55.4198C24.8521 55.3183 25.0847 55.0522 25.0939 55.0406C25.4771 54.5803 25.8268 53.8857 26.0483 53.0711C26.1678 52.6311 26.2364 52.203 26.26 51.8091C26.2619 51.781 26.3323 50.9171 25.7346 50.0633C25.2366 49.3516 24.4088 48.9429 23.4804 48.8438V48.6224C24.0516 48.5458 25.2186 48.5264 26.1558 49.7584C26.8521 49.3078 28.24 48.3147 29.3908 46.9093C30.9983 44.9453 31.9369 43.0265 32.535 42.0837C33.0501 41.271 33.7756 40.0289 35.1858 40.0436C36.2435 40.0547 37.101 40.8951 37.1056 41.9472C37.1098 43.5639 35.1265 46.0957 32.7439 48.103L31.9856 47.5979C31.4871 48.2275 30.7023 49.1736 29.9657 49.9835C28.9456 51.1053 28.0121 52.0268 28.0121 52.0268C30.7194 51.6417 33.5778 50.2985 34.8398 49.4983L33.9846 48.9286C34.2204 48.7972 34.4562 48.662 34.6906 48.5191C36.6845 47.3014 38.3226 45.8244 39.541 44.3088C41.5141 41.8545 41.3279 38.9523 41.3279 38.9523C41.3279 36.5096 39.339 34.529 36.8851 34.529H36.8819C36.5761 34.529 35.6621 34.665 35.4925 34.6918L35.4897 32.6148C35.4619 31.9321 34.9088 31.3851 34.2213 31.3643V31.362H32.9987C33.3452 30.3053 34.1217 28.9359 34.521 28.3607C35.3253 27.203 37.183 25.0374 38.6219 25.7039H38.6224C39.0935 26.0217 39.1412 26.608 39.1496 26.6688C39.1496 26.6698 39.3099 27.4345 38.8183 28.6508C38.8188 28.6513 38.8192 28.6513 38.8197 28.6518C38.7034 28.9451 37.8459 30.262 37.8765 31.3593C37.901 32.2453 38.2142 33.0544 38.7553 33.6701C39.4525 31.7652 40.7608 30.4986 42.4286 28.9848C44.1181 27.4516 43.9977 25.661 43.9977 25.661C43.9703 23.7976 42.4457 22.2948 40.5672 22.2948C39.9001 22.2948 39.2783 22.4844 38.7516 22.8124L36.1008 24.4286C35.9776 24.4941 35.8367 24.5314 35.6871 24.5314C35.4281 24.5314 35.221 24.4203 35.0348 24.2422C33.676 22.9429 32.263 20.4729 28.6954 20.139C29.0183 19.7857 29.5381 19.5306 30.1468 19.4549C30.1468 19.4549 30.3548 19.4231 30.8686 19.4171C30.8686 19.4171 34.3223 19.4895 34.3566 19.4895C35.7742 19.4895 37.0584 19.0869 37.9937 18.4347C39.1621 17.6662 39.9436 16.3618 39.9867 14.8734L37.8102 16.0385C37.7723 15.9269 37.7509 15.8083 37.7509 15.6842C37.7509 15.2903 37.959 14.9453 38.2712 14.7507C38.3402 14.7078 40.8127 13.426 41.2333 13.1105C42.1316 12.4361 42.8085 11.3656 42.833 9.93757C42.8474 9.10594 42.5745 8.33428 42.1344 7.69729C42.0469 8.67837 41.2204 9.44819 40.2118 9.44819H29.7734C29.8916 9.14561 30.2418 8.26001 30.4114 7.95974C30.6235 7.58429 30.9979 7.46713 30.9979 7.46713C31.6182 7.22405 31.8628 6.68808 31.8628 6.68808H31.236L32.0532 5.90489C31.627 5.94225 31.2212 5.73238 30.2057 5.25222C29.4496 4.89475 29.054 4.90306 28.9562 4.90536C28.2609 4.92197 27.9537 5.40905 27.8713 5.73007C27.8291 5.89566 27.5891 6.71115 27.5025 7.04509C27.3204 7.74618 27.4418 8.06906 27.4793 8.16407C27.5831 8.42883 27.799 8.62348 28.0654 8.71388L27.8768 9.16037C27.2366 9.02568 26.2734 8.22542 25.3589 7.32737L27.3357 4.02577L27.6188 3.9944C28.0274 3.93813 28.2632 3.53915 28.4179 3.24534C28.5268 3.03916 28.5296 2.81776 28.3651 2.66555L28.2289 2.53409L29.5098 0.378684L28.8654 0L27.5553 2.2043C26.9035 2.04056 26.3499 2.13696 26.3499 2.13696L20.6405 2.95659C20.3908 2.97873 20.1527 3.21535 20.1926 3.48057C20.4047 4.88184 21.2697 6.73651 22.6419 8.57551L24.1535 6.06817C23.3887 5.22731 22.8337 4.54513 22.8337 4.54513L26.8345 3.40031L10.2948 31.0249L9.48592 30.5659L9.49333 33.1692L11.7467 31.8491L10.9485 31.3962L14.2632 25.8598C14.2632 25.8598 14.3526 25.7002 14.486 25.602C14.6051 25.5143 14.7575 25.459 14.9168 25.4608C15.0841 25.4627 15.2444 25.5125 15.3949 25.6587C16.6263 26.7985 18.1347 27.792 19.8636 28.5369C20.3357 28.7403 20.8101 28.9179 21.2845 29.0729C21.2794 28.9585 21.2743 28.8441 21.2743 28.7283C21.2743 26.018 22.6664 23.6518 24.7368 22.3774L24.8618 22.9065C22.0883 25.2482 22.2782 28.459 22.7109 29.91C23.6509 33.064 26.3536 34.8338 29.2448 34.8431C29.4941 34.844 32.6818 34.7522 32.6818 34.7522C32.7861 34.7522 32.8704 34.8362 32.8704 34.9399V35.3717C31.7456 35.7605 30.5494 36.2822 29.3176 36.915C27.2032 38.0008 22.6845 40.474 23.7407 42.8969C23.6124 42.902 23.4836 42.9084 23.3534 42.9186C23.145 42.6072 23.0583 42.2544 23.0583 41.8379C23.0583 41.4163 23.1681 40.3453 24.7261 39.0127C25.6624 38.2116 28.6987 36.1055 28.6987 36.1055C28.5601 36.1147 28.4207 36.1198 28.2799 36.1198C26.7265 36.1198 25.2922 35.5838 24.1331 34.6789C24.1331 34.6789 20.5131 37.0958 19.5125 40.0146C18.9422 41.6778 19.7506 43.0994 20.1824 43.6976C20.0679 43.7484 19.9563 43.801 19.8465 43.8554C18.9987 43.0104 17.519 40.7576 20.0299 37.4081C21.4545 35.5077 22.9388 34.3698 23.4021 34.0239C22.3523 32.9404 21.6241 31.5119 21.3869 29.911C21.3869 29.911 16.8505 32.4806 15.2856 38.2111C14.0385 42.7784 16.6666 44.836 17.7553 45.4582C17.6974 45.5288 17.6418 45.5998 17.589 45.6722C16.8533 45.4195 16.2427 44.9495 15.6826 44.4347C14.6264 44.5385 12.0802 44.592 9.92046 42.9513C9.3386 42.5095 8.375 41.4154 8.47552 39.7166C8.57189 38.0903 9.38307 37.0026 9.91861 36.3869C9.95382 36.3463 10.0011 36.3154 10.0585 36.3154C10.1544 36.3154 10.2322 36.3929 10.2322 36.4883C10.2322 36.5091 10.2234 36.546 10.2234 36.546L10.1266 36.9657C10.8303 36.4736 10.7632 35.3901 10.7632 35.3666C10.7632 35.1212 10.5635 34.9219 10.3166 34.9219C10.2253 34.9219 10.1405 34.9496 10.0701 34.9962L6.27638 37.5455L7.97102 31.8131C7.97102 31.8131 7.0292 31.761 7.01715 31.761C6.84852 31.761 6.70166 31.851 6.62013 31.9843L0 42.575L3.25447 41.6151L2.7194 43.9965L4.59934 42.949L4.59981 42.9481C6.52747 48.2617 11.8597 52.0817 18.1366 52.0817C19.7821 52.0817 21.3623 51.8183 22.8341 51.335C22.8355 51.335 22.8364 51.3354 22.8378 51.335C22.8661 51.3271 22.8888 51.3244 22.9152 51.3244C23.0431 51.3244 23.1589 51.4194 23.1797 51.5305C23.2358 51.829 23.1927 52.1297 23.1232 52.3871C23.0472 52.6684 22.9536 52.8594 22.8008 53.0836C22.7202 53.2012 22.5821 53.2736 22.4329 53.2925L19.8715 53.519C18.7546 53.62 17.879 54.5549 17.879 55.6933C17.879 55.8722 17.9012 56.0457 17.942 56.2122C18.2755 55.5134 18.9709 55.0194 19.7867 54.9691C19.5139 55.2136 19.3415 55.5669 19.3415 55.9608C19.3415 56.3805 19.5366 56.7551 19.8409 57C20.0577 56.1384 20.7865 55.4811 21.6903 55.3667C21.8233 55.3501 22.0118 55.3358 22.2685 55.37Z" fill="#1A1B22"/>
</g>
<path d="M66.592 18.2121H72.208C72.24 18.3401 72.2667 18.4948 72.288 18.6761C72.3094 18.8574 72.32 19.0388 72.32 19.2201C72.32 19.9561 72.208 20.6494 71.984 21.3001C71.76 21.9508 71.408 22.5321 70.928 23.0441C70.416 23.5881 69.8027 24.0094 69.088 24.3081C68.3734 24.6068 67.5574 24.7561 66.64 24.7561C65.808 24.7561 65.024 24.6068 64.288 24.3081C63.552 24.0094 62.912 23.5934 62.368 23.0601C61.824 22.5268 61.392 21.8974 61.072 21.1721C60.752 20.4361 60.592 19.6361 60.592 18.7721C60.592 17.9081 60.752 17.1134 61.072 16.3881C61.392 15.6521 61.824 15.0174 62.368 14.4841C62.912 13.9508 63.552 13.5348 64.288 13.2361C65.024 12.9374 65.808 12.7881 66.64 12.7881C67.568 12.7881 68.3947 12.9481 69.12 13.2681C69.856 13.5881 70.4854 14.0308 71.008 14.5961L69.52 16.0521C69.1467 15.6574 68.7307 15.3588 68.272 15.1561C67.8134 14.9428 67.264 14.8361 66.624 14.8361C66.1014 14.8361 65.6054 14.9321 65.136 15.1241C64.6667 15.3054 64.256 15.5668 63.904 15.9081C63.552 16.2494 63.2694 16.6654 63.056 17.1561C62.8534 17.6361 62.752 18.1748 62.752 18.7721C62.752 19.3694 62.8534 19.9134 63.056 20.4041C63.2694 20.8841 63.552 21.2948 63.904 21.6361C64.2667 21.9774 64.6827 22.2441 65.152 22.4361C65.6214 22.6174 66.1227 22.7081 66.656 22.7081C67.264 22.7081 67.776 22.6228 68.192 22.4521C68.6187 22.2708 68.9814 22.0414 69.28 21.7641C69.4934 21.5721 69.6747 21.3321 69.824 21.0441C69.984 20.7454 70.1067 20.4148 70.192 20.0521H66.592V18.2121Z" fill="#1A1B22"/>
<path d="M74.1052 13.0441H81.3692V15.0921H76.2652V17.8761H80.8572V19.9241H76.2652V24.5001H74.1052V13.0441Z" fill="#1A1B22"/>
<path d="M83.027 13.0441H90.291V15.0921H85.187V17.8761H89.779V19.9241H85.187V24.5001H83.027V13.0441Z" fill="#1A1B22"/>
<path d="M100.576 24.7561C99.7227 24.7561 98.928 24.6014 98.192 24.2921C97.4667 23.9828 96.8374 23.5614 96.304 23.0281C95.7707 22.4841 95.3494 21.8494 95.04 21.1241C94.7414 20.3881 94.592 19.6041 94.592 18.7721C94.592 17.9401 94.7414 17.1614 95.04 16.4361C95.3494 15.7001 95.7707 15.0654 96.304 14.5321C96.8374 13.9881 97.4667 13.5614 98.192 13.2521C98.928 12.9428 99.7227 12.7881 100.576 12.7881C101.429 12.7881 102.219 12.9428 102.944 13.2521C103.68 13.5614 104.315 13.9881 104.848 14.5321C105.381 15.0654 105.797 15.7001 106.096 16.4361C106.405 17.1614 106.56 17.9401 106.56 18.7721C106.56 19.6041 106.405 20.3881 106.096 21.1241C105.797 21.8494 105.381 22.4841 104.848 23.0281C104.315 23.5614 103.68 23.9828 102.944 24.2921C102.219 24.6014 101.429 24.7561 100.576 24.7561ZM100.576 22.7081C101.109 22.7081 101.605 22.6121 102.064 22.4201C102.533 22.2281 102.939 21.9614 103.28 21.6201C103.632 21.2788 103.904 20.8681 104.096 20.3881C104.299 19.8974 104.4 19.3588 104.4 18.7721C104.4 18.1854 104.299 17.6521 104.096 17.1721C103.904 16.6814 103.632 16.2654 103.28 15.9241C102.939 15.5828 102.533 15.3161 102.064 15.1241C101.605 14.9321 101.109 14.8361 100.576 14.8361C100.043 14.8361 99.5414 14.9321 99.072 15.1241C98.6134 15.3161 98.208 15.5828 97.856 15.9241C97.5147 16.2654 97.2427 16.6814 97.04 17.1721C96.848 17.6521 96.752 18.1854 96.752 18.7721C96.752 19.3588 96.848 19.8974 97.04 20.3881C97.2427 20.8681 97.5147 21.2788 97.856 21.6201C98.208 21.9614 98.6134 22.2281 99.072 22.4201C99.5414 22.6121 100.043 22.7081 100.576 22.7081Z" fill="#1A1B22"/>
<path d="M108.308 13.0441H115.572V15.0921H110.468V17.8761H115.06V19.9241H110.468V24.5001H108.308V13.0441Z" fill="#1A1B22"/>
<path d="M117.23 13.0441H124.494V15.0921H119.39V17.8761H123.982V19.9241H119.39V24.5001H117.23V13.0441Z" fill="#1A1B22"/>
<path d="M126.152 13.0441H128.312V24.5001H126.152V13.0441Z" fill="#1A1B22"/>
<path d="M140.481 22.6601C139.915 23.3428 139.249 23.8654 138.481 24.2281C137.713 24.5801 136.854 24.7561 135.905 24.7561C135.051 24.7561 134.257 24.6014 133.521 24.2921C132.795 23.9828 132.166 23.5614 131.633 23.0281C131.099 22.4948 130.678 21.8654 130.369 21.1401C130.059 20.4041 129.905 19.6148 129.905 18.7721C129.905 17.9294 130.059 17.1454 130.369 16.4201C130.678 15.6841 131.099 15.0494 131.633 14.5161C132.166 13.9828 132.795 13.5614 133.521 13.2521C134.257 12.9428 135.051 12.7881 135.905 12.7881C136.822 12.7881 137.627 12.9481 138.321 13.2681C139.025 13.5881 139.649 14.0521 140.193 14.6601L138.673 16.1321C138.331 15.7374 137.937 15.4228 137.489 15.1881C137.051 14.9534 136.529 14.8361 135.921 14.8361C135.387 14.8361 134.886 14.9321 134.417 15.1241C133.947 15.3054 133.537 15.5668 133.185 15.9081C132.843 16.2494 132.571 16.6654 132.369 17.1561C132.166 17.6361 132.065 18.1748 132.065 18.7721C132.065 19.3694 132.166 19.9134 132.369 20.4041C132.571 20.8841 132.843 21.2948 133.185 21.6361C133.537 21.9774 133.947 22.2441 134.417 22.4361C134.886 22.6174 135.387 22.7081 135.921 22.7081C136.561 22.7081 137.126 22.5801 137.617 22.3241C138.118 22.0574 138.561 21.6841 138.945 21.2041L140.481 22.6601Z" fill="#1A1B22"/>
<path d="M142.215 13.0441H144.375V24.5001H142.215V13.0441Z" fill="#1A1B22"/>
<path d="M150.027 13.0441H152.491L156.795 24.5001H154.411L153.467 21.7641H149.051L148.107 24.5001H145.723L150.027 13.0441ZM152.763 19.7801L151.739 16.9161L151.323 15.5241H151.195L150.779 16.9161L149.755 19.7801H152.763Z" fill="#1A1B22"/>
<path d="M158.136 13.0441H160.296V22.4521H165.144V24.5001H158.136V13.0441Z" fill="#1A1B22"/>
<path d="M61.152 31.5441H68.416V33.5921H63.312V36.3761H67.904V38.4241H63.312V43.0001H61.152V31.5441Z" fill="#1A1B22"/>
<path d="M72.4648 31.5441H74.9288L79.2328 43.0001H76.8488L75.9048 40.2641H71.4888L70.5448 43.0001H68.1608L72.4648 31.5441ZM75.2008 38.2801L74.1768 35.4161L73.7608 34.0241H73.6328L73.2168 35.4161L72.1928 38.2801H75.2008Z" fill="#1A1B22"/>
<path d="M80.5739 31.5441H83.0859L87.6939 39.2241H87.8219L87.6939 37.0161V31.5441H89.8379V43.0001H87.5659L82.7019 34.8881H82.5739L82.7019 37.0961V43.0001H80.5739V31.5441Z" fill="#1A1B22"/>
<path d="M95.6404 43.2561C95.1497 43.2561 94.6804 43.1868 94.2324 43.0481C93.7844 42.9094 93.3737 42.7014 93.0004 42.4241C92.6271 42.1468 92.3018 41.8108 92.0244 41.4161C91.7471 41.0108 91.5284 40.5414 91.3684 40.0081L93.4004 39.2081C93.5498 39.7841 93.8111 40.2641 94.1844 40.6481C94.5578 41.0214 95.0484 41.2081 95.6564 41.2081C95.8804 41.2081 96.0938 41.1814 96.2964 41.1281C96.5098 41.0641 96.6964 40.9788 96.8564 40.8721C97.0271 40.7548 97.1604 40.6108 97.2564 40.4401C97.3524 40.2694 97.4004 40.0721 97.4004 39.8481C97.4004 39.6348 97.3631 39.4428 97.2884 39.2721C97.2138 39.1014 97.0857 38.9414 96.9044 38.7921C96.7337 38.6428 96.5044 38.4988 96.2164 38.3601C95.9391 38.2214 95.5924 38.0774 95.1764 37.9281L94.4724 37.6721C94.1631 37.5654 93.8484 37.4214 93.5284 37.2401C93.2191 37.0588 92.9364 36.8401 92.6804 36.5841C92.4244 36.3281 92.2111 36.0294 92.0404 35.6881C91.8804 35.3361 91.8004 34.9414 91.8004 34.5041C91.8004 34.0561 91.8857 33.6401 92.0564 33.2561C92.2377 32.8614 92.4884 32.5201 92.8084 32.2321C93.1391 31.9334 93.5284 31.7041 93.9764 31.5441C94.4351 31.3734 94.9417 31.2881 95.4964 31.2881C96.0724 31.2881 96.5684 31.3681 96.9844 31.5281C97.4111 31.6774 97.7684 31.8748 98.0564 32.1201C98.3551 32.3548 98.5951 32.6161 98.7764 32.9041C98.9577 33.1921 99.0911 33.4641 99.1764 33.7201L97.2724 34.5201C97.1657 34.2001 96.9684 33.9121 96.6804 33.6561C96.4031 33.4001 96.0191 33.2721 95.5284 33.2721C95.0591 33.2721 94.6698 33.3841 94.3604 33.6081C94.0511 33.8214 93.8964 34.1041 93.8964 34.4561C93.8964 34.7974 94.0457 35.0908 94.3444 35.3361C94.6431 35.5708 95.1178 35.8001 95.7684 36.0241L96.4884 36.2641C96.9471 36.4241 97.3631 36.6108 97.7364 36.8241C98.1204 37.0268 98.4458 37.2721 98.7124 37.5601C98.9897 37.8481 99.1978 38.1788 99.3364 38.5521C99.4858 38.9148 99.5604 39.3361 99.5604 39.8161C99.5604 40.4134 99.4378 40.9308 99.1924 41.3681C98.9578 41.7948 98.6538 42.1468 98.2804 42.4241C97.9071 42.7014 97.4857 42.9094 97.0164 43.0481C96.5471 43.1868 96.0884 43.2561 95.6404 43.2561Z" fill="#1A1B22"/>
<path d="M101.34 31.5441H103.5V36.1201H108.316V31.5441H110.476V43.0001H108.316V38.1681H103.5V43.0001H101.34V31.5441Z" fill="#1A1B22"/>
<path d="M118.045 43.2561C117.191 43.2561 116.397 43.1014 115.661 42.7921C114.935 42.4828 114.306 42.0614 113.773 41.5281C113.239 40.9841 112.818 40.3494 112.509 39.6241C112.21 38.8881 112.061 38.1041 112.061 37.2721C112.061 36.4401 112.21 35.6614 112.509 34.9361C112.818 34.2001 113.239 33.5654 113.773 33.0321C114.306 32.4881 114.935 32.0614 115.661 31.7521C116.397 31.4428 117.191 31.2881 118.045 31.2881C118.898 31.2881 119.687 31.4428 120.413 31.7521C121.149 32.0614 121.783 32.4881 122.317 33.0321C122.85 33.5654 123.266 34.2001 123.565 34.9361C123.874 35.6614 124.029 36.4401 124.029 37.2721C124.029 38.1041 123.874 38.8881 123.565 39.6241C123.266 40.3494 122.85 40.9841 122.317 41.5281C121.783 42.0614 121.149 42.4828 120.413 42.7921C119.687 43.1014 118.898 43.2561 118.045 43.2561ZM118.045 41.2081C118.578 41.2081 119.074 41.1121 119.533 40.9201C120.002 40.7281 120.407 40.4614 120.749 40.1201C121.101 39.7788 121.373 39.3681 121.565 38.8881C121.767 38.3974 121.869 37.8588 121.869 37.2721C121.869 36.6854 121.767 36.1521 121.565 35.6721C121.373 35.1814 121.101 34.7654 120.749 34.4241C120.407 34.0828 120.002 33.8161 119.533 33.6241C119.074 33.4321 118.578 33.3361 118.045 33.3361C117.511 33.3361 117.01 33.4321 116.541 33.6241C116.082 33.8161 115.677 34.0828 115.325 34.4241C114.983 34.7654 114.711 35.1814 114.509 35.6721C114.317 36.1521 114.221 36.6854 114.221 37.2721C114.221 37.8588 114.317 38.3974 114.509 38.8881C114.711 39.3681 114.983 39.7788 115.325 40.1201C115.677 40.4614 116.082 40.7281 116.541 40.9201C117.01 41.1121 117.511 41.2081 118.045 41.2081Z" fill="#1A1B22"/>
<path d="M125.777 43.0001V31.5441H129.809C130.353 31.5441 130.86 31.6348 131.329 31.8161C131.809 31.9868 132.225 32.2321 132.577 32.5521C132.929 32.8721 133.206 33.2561 133.409 33.7041C133.612 34.1414 133.713 34.6268 133.713 35.1601C133.713 35.7041 133.612 36.2001 133.409 36.6481C133.206 37.0854 132.929 37.4641 132.577 37.7841C132.225 38.1041 131.809 38.3548 131.329 38.5361C130.86 38.7068 130.353 38.7921 129.809 38.7921H127.937V43.0001H125.777ZM129.841 36.7441C130.406 36.7441 130.833 36.5841 131.121 36.2641C131.409 35.9441 131.553 35.5761 131.553 35.1601C131.553 34.9574 131.516 34.7601 131.441 34.5681C131.377 34.3761 131.27 34.2108 131.121 34.0721C130.982 33.9228 130.806 33.8054 130.593 33.7201C130.38 33.6348 130.129 33.5921 129.841 33.5921H127.937V36.7441H129.841Z" fill="#1A1B22"/>
</g>
<defs>
<clipPath id="clip0_18_834">
<rect width="44" height="57" fill="white"/>
</clipPath>
</defs>
</svg>
