<svg width="42" height="19" viewBox="0 0 42 19" fill="none" xmlns="http://www.w3.org/2000/svg">
<path d="M8.748 18.36C7.588 18.36 6.52 18.16 5.544 17.76C4.568 17.352 3.72 16.76 3 15.984C2.28 15.208 1.72 14.264 1.32 13.152C0.92 12.04 0.72 10.776 0.72 9.36C0.72 7.496 1.06 5.896 1.74 4.56C2.42 3.216 3.364 2.184 4.572 1.464C5.78 0.735999 7.172 0.371999 8.748 0.371999C10.78 0.371999 12.4 0.843999 13.608 1.788C14.824 2.732 15.652 4.036 16.092 5.7L13.548 6.156C13.196 5.124 12.628 4.3 11.844 3.684C11.06 3.068 10.076 2.756 8.892 2.748C7.668 2.74 6.648 3.012 5.832 3.564C5.024 4.116 4.416 4.892 4.008 5.892C3.6 6.884 3.392 8.04 3.384 9.36C3.376 10.68 3.576 11.836 3.984 12.828C4.392 13.812 5.004 14.58 5.82 15.132C6.644 15.684 7.668 15.964 8.892 15.972C9.876 15.988 10.72 15.808 11.424 15.432C12.136 15.048 12.7 14.488 13.116 13.752C13.532 13.016 13.8 12.112 13.92 11.04H10.56V9.024H16.584C16.6 9.168 16.612 9.36 16.62 9.6C16.628 9.832 16.632 9.98 16.632 10.044C16.632 11.644 16.324 13.072 15.708 14.328C15.092 15.584 14.196 16.572 13.02 17.292C11.844 18.004 10.42 18.36 8.748 18.36ZM18.5438 18V0.719999H20.8118L27.0758 13.716L33.3038 0.719999H35.5958V17.988H33.2198V6.168L27.6398 18H26.4998L20.9078 6.168V18H18.5438ZM38.9098 18V15.348H41.5618V18H38.9098Z" fill="#1A1B22"/>
</svg>
