<svg width="81" height="39" viewBox="0 0 81 39" fill="none" xmlns="http://www.w3.org/2000/svg">
<g opacity="0.7">
<path d="M52.0607 9.37795C51.3836 9.18046 50.7347 9.02529 50.114 8.91244V17.5456V23.8794V27.0533C50.114 27.279 49.9306 27.4483 49.719 27.4483H48.929C48.7033 27.4483 48.5341 27.2649 48.5341 27.0533V26.8417C47.9698 27.2226 47.2927 27.4483 46.5592 27.4483H44.1893C42.2144 27.4483 40.6203 25.8543 40.6203 23.8794V17.5456C40.6203 15.5707 42.2144 13.9767 44.1893 13.9767H46.5592C47.2927 13.9767 47.9698 14.2024 48.5341 14.5832V8.70084C43.23 8.30586 40.0984 11.367 38.716 17.9124C36.6423 27.8151 41.0576 29.6489 47.1798 30.2273C52.0889 30.6787 59.6923 29.1129 61.5684 22.2007C63.36 15.5707 59.4525 11.5362 52.0607 9.37795ZM53.3444 27.0533C53.3444 27.279 53.161 27.4483 52.9494 27.4483H52.1594C51.9337 27.4483 51.7644 27.2649 51.7644 27.0533V26.2634C51.7644 26.0377 51.9478 25.8684 52.1594 25.8684H52.9494C53.1751 25.8684 53.3444 26.0518 53.3444 26.2634V27.0533Z" fill="#1A1B22"/>
<path d="M44.1751 15.5708C43.0889 15.5708 42.2002 16.4595 42.2002 17.5457V23.8795C42.2002 24.9657 43.0889 25.8544 44.1751 25.8544H46.545C47.6312 25.8544 48.5199 24.9657 48.5199 23.8795V17.5457C48.5199 16.4595 47.6312 15.5708 46.545 15.5708H44.1751Z" fill="#1A1B22"/>
<path d="M38 17.7089C38 15.6565 36.3234 14 34.2463 14H31.7537C29.6766 14 28 15.6565 28 17.7089V24.2911C28 26.3435 29.6766 28 31.7537 28H35.908C36.1454 28 36.3234 27.8094 36.3234 27.5895V26.7686C36.3234 26.534 36.1306 26.3581 35.908 26.3581H31.7537C30.5964 26.3581 29.6766 25.4346 29.6766 24.3058V21.9602H37.2582H37.5846C37.822 21.9602 38 21.7696 38 21.5497V20.8021V17.7089ZM29.6766 17.7089C29.6766 16.5654 30.6113 15.6565 31.7537 15.6565H34.2463C35.4036 15.6565 36.3234 16.5801 36.3234 17.7089V20.3037H29.6766V17.7089Z" fill="#1A1B22"/>
<path d="M25.8599 14.777C25.2732 14.2932 24.5363 14 23.7448 14H21.4524C20.7428 14 20.0878 14.2346 19.542 14.6304V14.4105C19.542 14.1759 19.3646 14 19.1599 14H18.3821C18.1637 14 18 14.1906 18 14.4105V17.7089V24.2911V27.5895C18 27.8241 18.1774 28 18.3821 28H19.1462C19.3646 28 19.5283 27.8094 19.5283 27.5895V24.4084C19.5283 24.3644 19.5283 24.3351 19.5283 24.2911V21.6963V20.0398V17.6942C19.5283 16.5508 20.388 15.6419 21.4387 15.6419H23.7312C24.1406 15.6419 24.5227 15.7885 24.8365 16.023C24.9866 16.1403 25.1913 16.1257 25.3278 15.9791L25.8736 15.3927C26.051 15.2168 26.0373 14.9236 25.8599 14.777Z" fill="#1A1B22"/>
</g>
</svg>
