<svg width="214" height="25" viewBox="0 0 214 25" fill="none" xmlns="http://www.w3.org/2000/svg">
<g id="Frame" opacity="0.7" clip-path="url(#clip0_18_851)">
<path id="Vector" d="M20.4836 18.5457L24.5319 24.5H38.3098L21.9971 0.5L20.4836 18.5491L10.1086 9.68753L9.91564 21.6193L0.0927734 17.5312L5.95057 24.5H19.9847L20.4836 18.5457Z" fill="#1A1B22"/>
<path id="Vector_2" d="M66.7774 11.3541C66.4238 10.7554 65.9115 10.2662 65.2972 9.94038C64.5797 9.56478 63.7783 9.37818 62.9687 9.39818C62.1866 9.37488 61.4102 9.53835 60.7038 9.87503C59.9975 10.2117 59.3816 10.7119 58.9072 11.3341L58.7475 11.5337L58.6278 11.3109C57.9292 10.0502 56.6552 9.40816 54.8456 9.40816C54.0767 9.39681 53.3173 9.57866 52.6369 9.93705C52.0333 10.2534 51.5029 10.6932 51.0801 11.2277L51.0303 11.2942H50.7242V9.77406H45.1758V23.2061H50.8806V16.061C50.8392 15.5084 50.987 14.9583 51.2997 14.5009C51.4159 14.3445 51.5661 14.2166 51.739 14.1267C51.9118 14.0368 52.1029 13.9873 52.2976 13.982C52.4994 13.971 52.7002 14.0173 52.8768 14.1156C53.0534 14.2139 53.1985 14.3602 53.2955 14.5375C53.518 15.0413 53.6161 15.5912 53.5816 16.1408V23.1961H59.2897V16.061C59.2597 15.5303 59.3933 15.0032 59.6723 14.5508C59.7838 14.3759 59.9377 14.2321 60.1198 14.1326C60.3018 14.0332 60.506 13.9814 60.7134 13.982C60.9073 13.9686 61.1014 14.0061 61.2764 14.0907C61.4514 14.1753 61.6013 14.3041 61.7113 14.4643C61.9043 14.767 61.9974 15.2793 61.9974 16.0344V23.1961H67.7055V14.9932C67.7048 14.3762 67.6277 13.7617 67.476 13.1637C67.3245 12.5322 67.0896 11.9236 66.7774 11.3541V11.3541Z" fill="#1A1B22"/>
<path id="Vector_3" d="M76.4834 9.24183C74.5067 9.18576 72.5858 9.90161 71.1279 11.2377C69.7042 12.5682 68.9823 14.3213 68.9823 16.4801C68.9502 17.8815 69.3333 19.261 70.0834 20.4452C70.761 21.5194 71.7301 22.3788 72.8776 22.9233C74.0503 23.4599 75.3269 23.7313 76.6164 23.7183C77.9821 23.7432 79.3352 23.4541 80.5715 22.8734C81.5819 22.3974 82.4458 21.6587 83.073 20.7346L79.0813 18.7088C78.7906 19.0226 78.4341 19.2683 78.0372 19.4282C77.6404 19.5881 77.2132 19.6582 76.7861 19.6335C76.2001 19.6395 75.624 19.4816 75.1229 19.1778C74.888 19.0518 74.6868 18.8712 74.5363 18.6513C74.3858 18.4313 74.2903 18.1783 74.258 17.9138L74.2381 17.7242H83.552C83.5786 17.3549 83.5919 16.9824 83.5919 16.6098C83.5919 14.4842 82.9266 12.7046 81.6227 11.3208C80.3187 9.93705 78.5724 9.24183 76.4834 9.24183ZM78.6954 14.8169H74.1715L74.1948 14.6273C74.267 14.1272 74.5261 13.6731 74.92 13.3566C75.3723 12.9795 75.9481 12.7829 76.5366 12.8044C77.1001 12.7844 77.6515 12.9714 78.0867 13.33C78.2808 13.4924 78.4362 13.6962 78.5416 13.9264C78.6469 14.1566 78.6994 14.4074 78.6954 14.6605V14.8169Z" fill="#1A1B22"/>
<path id="Vector_4" d="M91.5821 6.67725H86.0702V9.76415H84.1609V13.7558H86.0702V18.8452C86.0702 20.4452 86.506 21.6461 87.3609 22.4111C88.2158 23.1762 89.5663 23.572 91.3526 23.572C92.3507 23.6083 93.3474 23.4675 94.2964 23.1562V19.3475C93.9925 19.4198 93.6808 19.4544 93.3684 19.4506C92.8868 19.4832 92.411 19.331 92.0378 19.0249C91.7351 18.7388 91.5788 18.2531 91.5788 17.5812V13.7459H94.5725V9.75417H91.5788L91.5821 6.67725Z" fill="#1A1B22"/>
<path id="Vector_5" d="M107.715 11.251C107.212 10.5757 106.525 10.0604 105.736 9.76744C104.726 9.39355 103.655 9.21518 102.579 9.24187C101.377 9.24598 100.186 9.4715 99.0663 9.90715C98.0394 10.2907 97.0938 10.864 96.2787 11.597L99.043 14.3279C99.8499 13.6327 100.872 13.2379 101.937 13.2103C103.374 13.2103 103.677 13.9687 103.677 14.6074V14.8302H103.507C102.574 14.8267 101.643 14.8911 100.719 15.0232C99.8635 15.1561 99.0239 15.3791 98.2147 15.6884C97.4675 15.9546 96.8158 16.4361 96.3419 17.0722C95.8848 17.7235 95.6513 18.5056 95.6767 19.3009C95.6767 20.7379 96.1424 21.8157 97.0605 22.5009C97.7876 23.0383 98.6382 23.3839 99.5341 23.506C100.43 23.6281 101.342 23.5227 102.186 23.1995C102.736 23.011 103.21 22.6477 103.534 22.1649L103.584 22.0884H103.896V23.1895H109.022V16.1142C109.034 15.2022 108.93 14.2923 108.713 13.4065C108.515 12.633 108.177 11.9024 107.715 11.251ZM104.082 18.13C104.102 18.6951 103.898 19.2452 103.514 19.6602C103.318 19.8609 103.083 20.0182 102.823 20.1219C102.562 20.2257 102.283 20.2735 102.003 20.2622C101.638 20.261 101.28 20.1561 100.972 19.9595C100.807 19.8658 100.67 19.7285 100.578 19.5625C100.485 19.3964 100.44 19.2082 100.447 19.0182C100.447 18.0036 101.498 17.488 103.574 17.488H104.082V18.13Z" fill="#1A1B22"/>
<path id="Vector_6" d="M117.285 13.1703C118.224 13.1986 119.136 13.489 119.919 14.0085L122.531 10.8883C120.82 9.78281 118.822 9.20444 116.786 9.22515C115.887 9.2244 114.996 9.37625 114.148 9.67421C113.269 9.99528 112.49 10.5426 111.889 11.2609C111.234 12.0213 110.884 12.9981 110.908 14.0019C110.881 14.5029 110.965 15.0037 111.154 15.4684C111.343 15.9331 111.633 16.3501 112.002 16.6896C112.765 17.3475 113.68 17.8048 114.664 18.0202C115.259 18.1391 115.843 18.3082 116.41 18.5258C116.779 18.6954 116.965 18.9249 116.965 19.191C116.965 19.4572 116.786 19.9096 115.931 19.9096C114.785 19.9008 113.682 19.4697 112.834 18.6987L110.106 21.8621C110.943 22.4595 111.876 22.9095 112.864 23.1927C113.988 23.5242 115.155 23.6933 116.327 23.695C117 23.6941 117.671 23.6081 118.323 23.4389C118.991 23.264 119.633 23.0011 120.232 22.6572C120.842 22.3077 121.345 21.7996 121.689 21.1869C122.066 20.5094 122.257 19.7436 122.241 18.9682C122.267 18.4534 122.175 17.9394 121.972 17.4656C121.769 16.9917 121.461 16.5705 121.07 16.2339C120.197 15.5267 119.161 15.0487 118.057 14.8434C117.54 14.7522 117.03 14.6221 116.533 14.4543C116.409 14.4192 116.3 14.346 116.221 14.245C116.141 14.144 116.096 14.0205 116.091 13.8921C116.094 13.5761 116.3 13.1703 117.285 13.1703Z" fill="#1A1B22"/>
<path id="Vector_7" d="M130.777 6.67725H125.255V9.76415H123.343V13.7558H125.282V18.8452C125.282 20.4452 125.715 21.6461 126.569 22.4111C127.424 23.1762 128.775 23.5721 130.561 23.5721C131.559 23.608 132.556 23.4672 133.505 23.1563V19.3475C133.2 19.4196 132.887 19.4542 132.574 19.4506C132.092 19.4849 131.615 19.3325 131.243 19.0249C130.937 18.7388 130.781 18.2531 130.781 17.5812V13.7459H133.774V9.75417H130.781L130.777 6.67725Z" fill="#1A1B22"/>
<path id="Vector_8" d="M142.892 9.91039C142.347 10.2288 141.899 10.6885 141.595 11.241V11.241L141.548 11.3274H141.216V9.75738H135.75V23.1894H141.458V16.6896C141.453 16.3522 141.519 16.0174 141.652 15.7072C141.785 15.3971 141.982 15.1186 142.23 14.89C142.774 14.3951 143.491 14.1345 144.226 14.1649C144.606 14.1602 144.985 14.1981 145.357 14.278L145.799 9.48794C145.48 9.42264 145.154 9.39252 144.828 9.39812C144.148 9.38727 143.478 9.56455 142.892 9.91039V9.91039Z" fill="#1A1B22"/>
<path id="Vector_9" d="M153.596 9.24183C151.619 9.18576 149.699 9.90161 148.241 11.2377C146.817 12.5682 146.099 14.3213 146.099 16.4801C146.067 17.8809 146.449 19.2601 147.196 20.4452C147.875 21.5187 148.844 22.3779 149.99 22.9233C151.163 23.4599 152.44 23.7313 153.729 23.7183C155.095 23.7432 156.448 23.4541 157.684 22.8734C158.695 22.3983 159.559 21.6594 160.186 20.7346L156.194 18.7088C155.903 19.0226 155.547 19.2683 155.15 19.4282C154.753 19.5881 154.326 19.6582 153.899 19.6335C153.313 19.6391 152.737 19.4813 152.236 19.1778C152.001 19.0518 151.8 18.8712 151.649 18.6513C151.499 18.4313 151.403 18.1783 151.371 17.9138L151.351 17.7242H160.665C160.691 17.3516 160.705 16.979 160.705 16.6098C160.705 14.4842 160.039 12.7046 158.736 11.3208C157.432 9.93705 155.672 9.24183 153.596 9.24183ZM155.808 14.8169H151.268L151.294 14.6273C151.366 14.1277 151.624 13.6737 152.016 13.3566C152.469 12.9795 153.044 12.7829 153.633 12.8044C154.194 12.7797 154.745 12.9607 155.183 13.3134C155.378 13.4753 155.533 13.679 155.639 13.9093C155.744 14.1396 155.796 14.3907 155.792 14.6439L155.808 14.8169Z" fill="#1A1B22"/>
<path id="Vector_10" d="M173.618 11.251C173.111 10.5731 172.417 10.0575 171.622 9.76738C170.613 9.3938 169.541 9.21544 168.465 9.24181C167.263 9.24592 166.073 9.47145 164.953 9.90709C163.926 10.2907 162.98 10.8639 162.165 11.5969L164.943 14.3512C165.749 13.656 166.772 13.2611 167.837 13.2335C169.274 13.2335 169.576 13.9919 169.576 14.6306V14.8534H169.407C168.474 14.8498 167.542 14.9142 166.619 15.0464C165.763 15.1794 164.924 15.4024 164.114 15.7117C163.366 15.9783 162.714 16.4596 162.238 17.0955C161.782 17.7474 161.549 18.529 161.573 19.3241C161.573 20.7611 162.039 21.8389 162.957 22.5241C163.684 23.0615 164.535 23.4072 165.43 23.5292C166.326 23.6513 167.238 23.5459 168.083 23.2227C168.626 23.0294 169.092 22.6667 169.413 22.1882L169.46 22.1117H169.793V23.2127H174.925V16.1142C174.935 15.2022 174.831 14.2926 174.616 13.4065C174.418 12.633 174.08 11.9024 173.618 11.251V11.251ZM169.985 18.13C170.004 18.6956 169.799 19.2457 169.413 19.6601C169.218 19.8604 168.983 20.0175 168.724 20.1212C168.464 20.2249 168.186 20.2729 167.906 20.2622C167.541 20.261 167.183 20.156 166.875 19.9595C166.71 19.8658 166.573 19.7284 166.481 19.5624C166.388 19.3964 166.343 19.2081 166.35 19.0181C166.35 18.0036 167.401 17.488 169.476 17.488H169.985V18.13Z" fill="#1A1B22"/>
<path id="Vector_11" d="M198.21 11.3538C197.856 10.7552 197.344 10.2659 196.73 9.9401C196.012 9.56478 195.211 9.37819 194.401 9.3979C193.621 9.3762 192.846 9.54045 192.142 9.87706C191.437 10.2137 190.823 10.713 190.35 11.3339L190.19 11.5335L190.067 11.3106C189.368 10.0499 188.098 9.40788 186.288 9.40788C185.519 9.3961 184.76 9.57798 184.079 9.93677C183.477 10.2542 182.946 10.6938 182.523 11.2274L182.473 11.294H182.167V9.77378H176.615V23.2058H182.323V16.0607C182.281 15.5081 182.429 14.9576 182.742 14.5006C182.858 14.3439 183.008 14.2157 183.181 14.1257C183.354 14.0358 183.545 13.9865 183.74 13.9817C183.942 13.9707 184.143 14.017 184.319 14.1153C184.496 14.2136 184.641 14.3599 184.738 14.5372C184.959 15.0413 185.056 15.5912 185.021 16.1405V23.1958H190.752V16.0607C190.722 15.5295 190.856 15.0019 191.138 14.5505C191.251 14.3774 191.406 14.2357 191.589 14.1386C191.772 14.0415 191.976 13.9921 192.183 13.995C192.377 13.9813 192.571 14.0187 192.746 14.1033C192.921 14.1879 193.071 14.3169 193.18 14.4773C193.377 14.78 193.47 15.2923 193.47 16.0474V23.2091H199.168V14.9929C199.167 14.3759 199.09 13.7614 198.938 13.1634C198.778 12.5302 198.533 11.9216 198.21 11.3538Z" fill="#1A1B22"/>
<path id="Vector_12" d="M198.442 4.76119H200.817V10.4593H202.61V4.76119H204.989V3.18115H198.442V4.76119Z" fill="#1A1B22"/>
<path id="Vector_13" d="M211.771 3.18115L210.66 4.73125C210.294 5.2535 209.732 6.06182 209.493 6.42107C209.25 6.06847 208.684 5.24352 208.312 4.71794L207.201 3.18115H205.681V10.4593H207.484V6.43437C207.583 6.59404 207.716 6.79362 207.886 7.03978L209.503 9.40153L211.096 7.07304C211.272 6.81691 211.405 6.61067 211.509 6.44768V10.4693H213.305V3.18115H211.771Z" fill="#1A1B22"/>
</g>
<defs>
<clipPath id="clip0_18_851">
<rect width="213.199" height="24" fill="white" transform="translate(0.0927734 0.5)"/>
</clipPath>
</defs>
</svg>
