<svg width="164" height="49" viewBox="0 0 164 49" fill="none" xmlns="http://www.w3.org/2000/svg">
<g opacity="0.7">
<g clip-path="url(#clip0_18_841)">
<path fill-rule="evenodd" clip-rule="evenodd" d="M23.7609 0.513672L44.4004 13.0647V36.7722L29.3392 45.4184V40.6769L40.4956 34.262V17.2484L25.9922 25.8946V47.0919L23.7609 48.4865L10.931 41.2348V36.4933L21.8086 42.6293V25.8946L7.02624 17.2484V39.0035L3.40039 36.7722V13.0647L23.7609 0.513672ZM23.7608 5.25488L38.2642 13.9011L23.7608 22.5474L8.97852 13.9011L23.7608 5.25488Z" fill="#1A1B22"/>
<path d="M29.6172 27.8468V36.2141L36.8689 32.3093V23.6631L29.6172 27.8468Z" fill="#1A1B22"/>
<path d="M18.4609 28.0331V36.2145L11.2092 32.3965V23.9424L18.4609 28.0331Z" fill="#1A1B22"/>
<path d="M30.7346 13.9011L24.0408 9.43848L16.7891 13.9011L24.0408 18.2001L30.7346 13.9011Z" fill="#1A1B22"/>
</g>
<path d="M67.0071 19.3542C67.8903 20.199 68.3319 21.255 68.3319 22.5222C68.3319 23.7894 67.8903 24.8518 67.0071 25.7094C66.1239 26.5542 64.9911 26.9766 63.6087 26.9766H61.5159V31.6998H59.2695V18.0678H63.6087C64.9911 18.0678 66.1239 18.4966 67.0071 19.3542ZM65.4327 24.2118C65.8935 23.7638 66.1239 23.2006 66.1239 22.5222C66.1239 21.8438 65.8935 21.287 65.4327 20.8518C64.9847 20.4038 64.3703 20.1798 63.5895 20.1798H61.5159V24.8646H63.5895C64.3703 24.8646 64.9847 24.647 65.4327 24.2118Z" fill="#1A1B22"/>
<path d="M70.1574 31.6998V22.0998H72.2694V23.8086C72.4486 23.271 72.775 22.8358 73.2486 22.503C73.735 22.1702 74.2534 22.0038 74.8038 22.0038C75.1366 22.0038 75.4118 22.0294 75.6294 22.0806V24.2502C75.3222 24.135 74.9702 24.0774 74.5734 24.0774C73.9334 24.0774 73.3894 24.3398 72.9414 24.8646C72.4934 25.3766 72.2694 26.0934 72.2694 27.015V31.6998H70.1574Z" fill="#1A1B22"/>
<path d="M85.0241 30.4518C84.0641 31.4118 82.8737 31.8918 81.4529 31.8918C80.0321 31.8918 78.8353 31.4118 77.8625 30.4518C76.9025 29.479 76.4225 28.295 76.4225 26.8998C76.4225 25.5046 76.9025 24.327 77.8625 23.367C78.8353 22.3942 80.0321 21.9078 81.4529 21.9078C82.8737 21.9078 84.0641 22.3942 85.0241 23.367C85.9969 24.327 86.4833 25.5046 86.4833 26.8998C86.4833 28.295 85.9969 29.479 85.0241 30.4518ZM81.4529 29.9334C82.2849 29.9334 82.9697 29.6454 83.5073 29.0694C84.0577 28.4806 84.3329 27.7574 84.3329 26.8998C84.3329 26.0422 84.0577 25.3254 83.5073 24.7494C82.9697 24.1606 82.2849 23.8662 81.4529 23.8662C80.6081 23.8662 79.9105 24.1606 79.3601 24.7494C78.8225 25.3254 78.5537 26.0422 78.5537 26.8998C78.5537 27.7574 78.8225 28.4806 79.3601 29.0694C79.9105 29.6454 80.6081 29.9334 81.4529 29.9334Z" fill="#1A1B22"/>
<path d="M96.5178 30.4518C95.5578 31.4118 94.3674 31.8918 92.9466 31.8918C91.5258 31.8918 90.329 31.4118 89.3562 30.4518C88.3962 29.479 87.9162 28.295 87.9162 26.8998C87.9162 25.5046 88.3962 24.327 89.3562 23.367C90.329 22.3942 91.5258 21.9078 92.9466 21.9078C94.3674 21.9078 95.5578 22.3942 96.5178 23.367C97.4906 24.327 97.977 25.5046 97.977 26.8998C97.977 28.295 97.4906 29.479 96.5178 30.4518ZM92.9466 29.9334C93.7786 29.9334 94.4634 29.6454 95.001 29.0694C95.5514 28.4806 95.8266 27.7574 95.8266 26.8998C95.8266 26.0422 95.5514 25.3254 95.001 24.7494C94.4634 24.1606 93.7786 23.8662 92.9466 23.8662C92.1018 23.8662 91.4042 24.1606 90.8538 24.7494C90.3162 25.3254 90.0474 26.0422 90.0474 26.8998C90.0474 27.7574 90.3162 28.4806 90.8538 29.0694C91.4042 29.6454 92.1018 29.9334 92.9466 29.9334Z" fill="#1A1B22"/>
<path d="M100.835 31.6998V23.9814H98.838V22.0998H100.835V20.487C100.835 19.4502 101.142 18.6438 101.756 18.0678C102.371 17.479 103.158 17.1846 104.118 17.1846C104.707 17.1846 105.232 17.2614 105.692 17.415V19.2966C105.398 19.1686 105.02 19.1046 104.56 19.1046C103.996 19.1046 103.587 19.2326 103.331 19.4886C103.075 19.7318 102.947 20.1478 102.947 20.7366V22.0998H105.692V23.9814H102.947V31.6998H100.835Z" fill="#1A1B22"/>
<path d="M115.402 30.4518C114.455 31.4118 113.258 31.8918 111.811 31.8918C110.365 31.8918 109.168 31.4118 108.221 30.4518C107.274 29.479 106.8 28.295 106.8 26.8998C106.8 25.5046 107.274 24.327 108.221 23.367C109.168 22.3942 110.365 21.9078 111.811 21.9078C113.258 21.9078 114.455 22.3942 115.402 23.367C116.349 24.327 116.823 25.5046 116.823 26.8998C116.823 28.295 116.349 29.479 115.402 30.4518ZM109.181 29.5686C109.859 30.2854 110.736 30.6438 111.811 30.6438C112.887 30.6438 113.757 30.2854 114.423 29.5686C115.101 28.839 115.44 27.9494 115.44 26.8998C115.44 25.8502 115.101 24.967 114.423 24.2502C113.757 23.5206 112.887 23.1558 111.811 23.1558C110.736 23.1558 109.859 23.5206 109.181 24.2502C108.515 24.967 108.183 25.8502 108.183 26.8998C108.183 27.9494 108.515 28.839 109.181 29.5686Z" fill="#1A1B22"/>
<path d="M119.905 31.6998V23.367H117.851V22.0998H119.905V19.9494C119.905 19.0406 120.148 18.3558 120.635 17.895C121.134 17.4214 121.793 17.1846 122.612 17.1846C123.15 17.1846 123.63 17.2678 124.052 17.4342V18.6438C123.732 18.503 123.323 18.4326 122.823 18.4326C122.286 18.4326 121.889 18.5606 121.633 18.8166C121.377 19.0598 121.249 19.4758 121.249 20.0646V22.0998H124.052V23.367H121.249V31.6998H119.905Z" fill="#1A1B22"/>
<path d="M133.701 19.3542C134.584 20.199 135.026 21.255 135.026 22.5222C135.026 23.7894 134.584 24.8518 133.701 25.7094C132.818 26.5542 131.685 26.9766 130.302 26.9766H128.21V31.6998H125.963V18.0678H130.302C131.685 18.0678 132.818 18.4966 133.701 19.3542ZM132.126 24.2118C132.587 23.7638 132.818 23.2006 132.818 22.5222C132.818 21.8438 132.587 21.287 132.126 20.8518C131.678 20.4038 131.064 20.1798 130.283 20.1798H128.21V24.8646H130.283C131.064 24.8646 131.678 24.647 132.126 24.2118Z" fill="#1A1B22"/>
<path d="M136.926 31.6998V17.2998H139.038V31.6998H136.926Z" fill="#1A1B22"/>
<path d="M145.812 31.8918C144.507 31.8918 143.406 31.4054 142.51 30.4326C141.627 29.4598 141.185 28.2822 141.185 26.8998C141.185 25.5174 141.627 24.3398 142.51 23.367C143.406 22.3942 144.507 21.9078 145.812 21.9078C146.465 21.9078 147.067 22.055 147.617 22.3494C148.167 22.631 148.59 22.9766 148.884 23.3862V22.0998H150.996V31.6998H148.884V30.4134C148.59 30.823 148.167 31.175 147.617 31.4694C147.067 31.751 146.465 31.8918 145.812 31.8918ZM144.142 29.0886C144.679 29.6774 145.364 29.9718 146.196 29.9718C147.028 29.9718 147.713 29.6774 148.251 29.0886C148.788 28.4998 149.057 27.7702 149.057 26.8998C149.057 26.0294 148.788 25.2998 148.251 24.711C147.713 24.1222 147.028 23.8278 146.196 23.8278C145.364 23.8278 144.679 24.1222 144.142 24.711C143.604 25.2998 143.335 26.0294 143.335 26.8998C143.335 27.7702 143.604 28.4998 144.142 29.0886Z" fill="#1A1B22"/>
<path d="M156.929 35.7126H154.606L156.661 31.1814L152.533 22.0998H154.856L157.793 28.8966L160.75 22.0998H163.093L156.929 35.7126Z" fill="#1A1B22"/>
</g>
<defs>
<clipPath id="clip0_18_841">
<rect width="48" height="48" fill="white" transform="translate(0 0.5)"/>
</clipPath>
</defs>
</svg>
