<svg width="81" height="39" viewBox="0 0 81 39" fill="none" xmlns="http://www.w3.org/2000/svg">
<g opacity="0.7">
<path d="M49.3198 11.6744C48.7965 11.5218 48.2951 11.4019 47.8155 11.3147V17.9858V22.8802V25.3328C47.8155 25.5072 47.6738 25.638 47.5103 25.638H46.8998C46.7254 25.638 46.5946 25.4963 46.5946 25.3328V25.1693C46.1586 25.4636 45.6354 25.638 45.0685 25.638H43.2372C41.7112 25.638 40.4794 24.4063 40.4794 22.8802V17.9858C40.4794 16.4597 41.7112 15.228 43.2372 15.228H45.0685C45.6354 15.228 46.1586 15.4024 46.5946 15.6967V11.1512C42.496 10.8459 40.0761 13.2114 39.0078 18.2692C37.4054 25.9214 40.8173 27.3385 45.5482 27.7854C49.3416 28.1343 55.217 26.9243 56.6668 21.583C58.0511 16.4597 55.0317 13.3422 49.3198 11.6744ZM50.3117 25.3328C50.3117 25.5072 50.17 25.638 50.0065 25.638H49.3961C49.2217 25.638 49.0909 25.4963 49.0909 25.3328V24.7224C49.0909 24.548 49.2326 24.4172 49.3961 24.4172H50.0065C50.1809 24.4172 50.3117 24.5589 50.3117 24.7224V25.3328Z" fill="#1A1B22"/>
<path d="M43.2263 16.46C42.3869 16.46 41.7002 17.1467 41.7002 17.986V22.8804C41.7002 23.7197 42.3869 24.4065 43.2263 24.4065H45.0576C45.8969 24.4065 46.5837 23.7197 46.5837 22.8804V17.986C46.5837 17.1467 45.8969 16.46 45.0576 16.46H43.2263Z" fill="#1A1B22"/>
<path d="M38 17.9141C38 16.3016 36.8264 15 35.3724 15H33.6276C32.1736 15 31 16.3016 31 17.9141V23.0859C31 24.6984 32.1736 26 33.6276 26H36.5356C36.7018 26 36.8264 25.8503 36.8264 25.6775V25.0325C36.8264 24.8482 36.6914 24.7099 36.5356 24.7099H33.6276C32.8175 24.7099 32.1736 23.9843 32.1736 23.0974V21.2544H37.4807H37.7092C37.8754 21.2544 38 21.1047 38 20.9319V20.3445V17.9141ZM32.1736 17.9141C32.1736 17.0157 32.8279 16.3016 33.6276 16.3016H35.3724C36.1825 16.3016 36.8264 17.0272 36.8264 17.9141V19.9529H32.1736V17.9141Z" fill="#1A1B22"/>
<path d="M28.895 15.6105C28.4549 15.2304 27.9022 15 27.3086 15H25.5893C25.0571 15 24.5658 15.1843 24.1565 15.4953V15.3225C24.1565 15.1382 24.0234 15 23.8699 15H23.2866C23.1228 15 23 15.1497 23 15.3225V17.9141V23.0859V25.6775C23 25.8618 23.133 26 23.2866 26H23.8597C24.0234 26 24.1462 25.8503 24.1462 25.6775V23.178C24.1462 23.1435 24.1462 23.1204 24.1462 23.0859V21.0471V19.7455V17.9026C24.1462 17.0042 24.791 16.2901 25.579 16.2901H27.2984C27.6054 16.2901 27.892 16.4052 28.1274 16.5895C28.24 16.6817 28.3935 16.6702 28.4958 16.555L28.9052 16.0942C29.0382 15.956 29.028 15.7257 28.895 15.6105Z" fill="#1A1B22"/>
</g>
</svg>
