<svg width="24" height="24" viewBox="0 0 24 24" fill="none" xmlns="http://www.w3.org/2000/svg">
<g id="brand / youtube">
<path id="coolicon" d="M12.0136 20H11.9916C11.9235 20 5.10583 19.9863 3.38575 19.501C2.43989 19.2363 1.70122 18.4684 1.44695 17.4856C1.13764 15.6727 0.988277 13.8343 1.00072 11.9931C0.992726 10.149 1.14613 8.30798 1.45904 6.49272C1.7203 5.50901 2.45573 4.7376 3.40004 4.45675C5.07285 4 11.7026 4 11.9839 4H12.007C12.0763 4 18.9115 4.0137 20.614 4.499C21.5579 4.76507 22.2951 5.53137 22.5506 6.51213C22.8698 8.33176 23.0196 10.1791 22.998 12.0285C23.0057 13.8704 22.8519 15.7092 22.5385 17.5221C22.281 18.5037 21.5418 19.2699 20.5964 19.5353C18.9258 19.9954 12.295 20 12.0136 20ZM9.81544 8.57322L9.80994 15.4245L15.5384 11.9989L9.81544 8.57322Z" fill="#1A1B22"/>
</g>
</svg>
