<svg width="140" height="31" viewBox="0 0 140 31" fill="none" xmlns="http://www.w3.org/2000/svg">
<g opacity="0.7">
<path fill-rule="evenodd" clip-rule="evenodd" d="M3.2555 8.53783C10.3502 16.1682 20.8248 17.5308 20.8248 17.5308L14.46 29.358L3.2555 8.53783ZM0.291992 2.5C9.35831 5.70408 18.9316 6.20281 29.292 2.5L23.8261 12.7019C9.70343 11.9975 0.291992 2.5 0.291992 2.5Z" fill="#1A1B22"/>
<path d="M51.2174 22.5H47.1134L41.4734 5.7H45.0734L49.1774 18.612L53.2574 5.7H56.8814L51.2174 22.5ZM68.5907 17.772H59.5427C59.9427 19.276 61.0707 20.028 62.9267 20.028C64.1107 20.028 65.0067 19.628 65.6147 18.828L68.1107 20.268C66.9267 21.98 65.1827 22.836 62.8787 22.836C60.8947 22.836 59.3027 22.236 58.1027 21.036C56.9027 19.836 56.3027 18.324 56.3027 16.5C56.3027 14.708 56.8947 13.204 58.0787 11.988C59.2467 10.772 60.7667 10.164 62.6387 10.164C64.4147 10.164 65.8627 10.772 66.9827 11.988C68.1347 13.204 68.7107 14.708 68.7107 16.5C68.7107 16.836 68.6707 17.26 68.5907 17.772ZM59.4947 15.372H65.6147C65.4387 14.588 65.0787 13.988 64.5347 13.572C64.0067 13.156 63.3747 12.948 62.6387 12.948C61.8067 12.948 61.1187 13.164 60.5747 13.596C60.0307 14.012 59.6707 14.604 59.4947 15.372ZM73.9681 22.5H70.8721V4.98H73.9681V22.5ZM85.9217 11.916V10.5H89.0177V22.5H85.9217V21.084C84.9937 22.252 83.6897 22.836 82.0097 22.836C80.4097 22.836 79.0337 22.228 77.8817 21.012C76.7457 19.78 76.1777 18.276 76.1777 16.5C76.1777 14.74 76.7457 13.244 77.8817 12.012C79.0337 10.78 80.4097 10.164 82.0097 10.164C83.6897 10.164 84.9937 10.748 85.9217 11.916ZM80.2097 18.948C80.8337 19.572 81.6257 19.884 82.5857 19.884C83.5457 19.884 84.3377 19.572 84.9617 18.948C85.6017 18.308 85.9217 17.492 85.9217 16.5C85.9217 15.508 85.6017 14.7 84.9617 14.076C84.3377 13.436 83.5457 13.116 82.5857 13.116C81.6257 13.116 80.8337 13.436 80.2097 14.076C79.5857 14.7 79.2737 15.508 79.2737 16.5C79.2737 17.492 79.5857 18.308 80.2097 18.948ZM94.9212 10.5V12.564C95.1932 11.812 95.6572 11.244 96.3132 10.86C96.9692 10.46 97.7212 10.26 98.5692 10.26V13.716C97.6252 13.588 96.7772 13.78 96.0252 14.292C95.2892 14.788 94.9212 15.612 94.9212 16.764V22.5H91.8252V10.5H94.9212ZM101.916 9.06C101.404 9.06 100.956 8.876 100.572 8.508C100.204 8.124 100.02 7.676 100.02 7.164C100.02 6.652 100.204 6.204 100.572 5.82C100.956 5.436 101.404 5.244 101.916 5.244C102.444 5.244 102.892 5.436 103.26 5.82C103.644 6.204 103.836 6.652 103.836 7.164C103.836 7.676 103.644 8.124 103.26 8.508C102.892 8.876 102.444 9.06 101.916 9.06ZM103.476 22.5H100.38V10.5H103.476V22.5ZM114.23 16.98V10.5H117.326V22.5H114.23V21.156C113.494 22.276 112.302 22.836 110.654 22.836C109.342 22.836 108.254 22.396 107.39 21.516C106.542 20.62 106.118 19.404 106.118 17.868V10.5H109.214V17.484C109.214 18.268 109.422 18.876 109.838 19.308C110.27 19.74 110.854 19.956 111.59 19.956C112.406 19.956 113.046 19.708 113.51 19.212C113.99 18.7 114.23 17.956 114.23 16.98ZM133.433 10.164C134.809 10.164 135.905 10.612 136.721 11.508C137.553 12.404 137.969 13.604 137.969 15.108V22.5H134.873V15.324C134.873 14.604 134.697 14.044 134.345 13.644C133.993 13.244 133.497 13.044 132.857 13.044C132.153 13.044 131.601 13.276 131.201 13.74C130.817 14.204 130.625 14.876 130.625 15.756V22.5H127.529V15.324C127.529 14.604 127.353 14.044 127.001 13.644C126.649 13.244 126.153 13.044 125.513 13.044C124.825 13.044 124.273 13.284 123.857 13.764C123.457 14.228 123.257 14.892 123.257 15.756V22.5H120.161V10.5H123.257V11.772C123.977 10.7 125.089 10.164 126.593 10.164C128.081 10.164 129.169 10.74 129.857 11.892C130.641 10.74 131.833 10.164 133.433 10.164Z" fill="#1A1B22"/>
</g>
</svg>
